<svg width="144" height="144" version="1.1" viewBox="0 0 39 39" xmlns="http://www.w3.org/2000/svg">
 <path d="m10.7 32.8 0.6 0.3c2.5 1.5 5.3 2.2 8.1 2.2 8.8 0 16-7.2 16-16 0-4.2-1.7-8.3-4.7-11.3s-7-4.7-11.3-4.7c-8.8 0-16 7.2-15.9 16.1 0 3 0.9 5.9 2.4 8.4l0.4 0.6-1.6 5.9z" fill="#00e676"/>
 <path d="m19.5 1c-10.2 0-18.401 8.3004-18.301 18.4 0 3.2 0.90039 6.2996 2.4004 9.0996l-2.5996 9.5 9.6992-2.5c2.7 1.5 5.7012 2.1992 8.7012 2.1992 10.1 0 18.299-8.2984 18.299-18.398 0-4.9-1.8988-9.5004-5.2988-12.9-3.4-3.5-8.1004-5.4004-12.9-5.4004zm-0.21484 3.209c5.1296-0.063446 10.128 2.4664 13.016 7.1914 4.4 7.2 2.2996 16.5-4.9004 20.9-2.3 1.5-5.1004 2.2988-7.9004 2.2988-2.7 0-5.3992-0.69961-7.6992-2.0996l-0.60156-0.30078-5.7988 1.5 1.5-5.6992-0.40039-0.59961c-4.4-7.1-2.2996-16.5 4.9004-20.9 2.475-1.5125 5.1978-2.2578 7.8848-2.291zm-5.6895 5.7188a2 2 0 0 0-2 2 2 2 0 0 0 2 2 2 2 0 0 0 2-2 2 2 0 0 0-2-2zm5.9707 0a2 2 0 0 0-2 2 2 2 0 0 0 2 2 2 2 0 0 0 2-2 2 2 0 0 0-2-2zm5.8711 0a2 2 0 0 0-2 2 2 2 0 0 0 2 2 2 2 0 0 0 2-2 2 2 0 0 0-2-2zm-11.842 5.7715a2 2 0 0 0-2 2 2 2 0 0 0 2 2 2 2 0 0 0 2-2 2 2 0 0 0-2-2zm5.9707 0a2 2 0 0 0-2 2 2 2 0 0 0 2 2 2 2 0 0 0 2-2 2 2 0 0 0-2-2zm5.8711 0a2 2 0 0 0-2 2 2 2 0 0 0 2 2 2 2 0 0 0 2-2 2 2 0 0 0-2-2zm-11.842 6.0723a2 2 0 0 0-2 2 2 2 0 0 0 2 2 2 2 0 0 0 2-2 2 2 0 0 0-2-2zm5.9707 0a2 2 0 0 0-2 2 2 2 0 0 0 2 2 2 2 0 0 0 2-2 2 2 0 0 0-2-2zm5.8711 0a2 2 0 0 0-2 2 2 2 0 0 0 2 2 2 2 0 0 0 2-2 2 2 0 0 0-2-2zm-5.8711 5.6719a2 2 0 0 0-2 2 2 2 0 0 0 2 2 2 2 0 0 0 2-2 2 2 0 0 0-2-2z" fill="#fff"/>
</svg>
